<svg xmlns="http://www.w3.org/2000/svg" width="20" height="21" viewBox="0 0 20 21" fill="currentColor">
  <path fill-rule="evenodd" clip-rule="evenodd" d="M10 20.25C15.5228 20.25 20 15.7728 20 10.25C20 4.72715 15.5228 0.25 10 0.25C4.47715 0.25 0 4.72715 0 10.25C0 15.7728 4.47715 20.25 10 20.25ZM10 3.25C10.5523 3.25 11 3.69772 11 4.25V9.25H16C16.5523 9.25 17 9.69772 17 10.25C17 10.8023 16.5523 11.25 16 11.25H11V16.25C11 16.8023 10.5523 17.25 10 17.25C9.44772 17.25 9 16.8023 9 16.25V11.25L4 11.25C3.44771 11.25 3 10.8023 3 10.25C3 9.69771 3.44771 9.25 4 9.25L9 9.25V4.25C9 3.69772 9.44772 3.25 10 3.25Z" fill="#D9D9D9"/>
</svg>